<svg xmlns="http://www.w3.org/2000/svg" viewBox="0 0 120.923 38"><title>logo-light</title><polygon points="4.959 9.773 4.959 17.603 10.875 9.773 16.414 9.773 8.816 19.488 16.559 30.072 10.875 30.072 4.959 21.895 4.959 30.072 0 30.072 0 9.773 4.959 9.773" fill="#fff"/><polygon points="77.977 30.072 72.583 30.072 65.245 9.773 70.698 9.773 75.28 24.215 79.862 9.773 85.314 9.773 77.977 30.072" fill="#fff"/><rect x="89.8" y="9.773" width="4.959" height="20.299" fill="#fff"/><path d="M119.5,13.4a10.644,10.644,0,0,0-18.328,7.5,10.645,10.645,0,1,0,21.286,0A10.251,10.251,0,0,0,119.5,13.4Zm-3.741,11.746a5.5,5.5,0,0,1-7.888,0,6.024,6.024,0,0,1-1.537-4.249,5.945,5.945,0,0,1,1.537-4.191,5.5,5.5,0,0,1,7.888,0,5.95,5.95,0,0,1,1.537,4.191A6.028,6.028,0,0,1,115.762,25.143Z" transform="translate(-1.539 -1)" fill="#fff"/><path d="M59.944,19.769a1.661,1.661,0,0,0-.349.178h0a1.973,1.973,0,0,0-.644.72v0c-.024.043-.045.087-.066.132a10.8,10.8,0,0,1-3.627-.2l-.026-.011c.008-.121.018-.242.022-.363q.021-.544-.007-1.088a11.448,11.448,0,0,0-.2-1.625h0c-.034-.173-.074-.344-.115-.515-.011-.046-.023-.092-.035-.138q-.056-.215-.117-.426c-.009-.03-.017-.06-.026-.09q-.077-.25-.164-.5c-.013-.038-.028-.077-.041-.115-.049-.135-.1-.27-.154-.4l-.045-.112q-.05-.12-.1-.237A14.581,14.581,0,0,1,57,13.165l.013.013c.019.02.037.039.057.058l.024.022a1.56,1.56,0,0,0,.129.105l.021.016c.015.011.031.02.046.029a.5.5,0,0,0,.049.031l.044.024.053.026.044.018a.52.52,0,0,0,.055.021l.044.013.055.015.044.007.057.008.044,0h.056a.315.315,0,0,0,.044,0l.056-.008.044-.01c.018-.005.037-.01.055-.017s.029-.009.043-.015l.055-.026.041-.022c.018-.011.036-.024.054-.036s.027-.018.039-.028.037-.031.056-.048l.035-.033c.02-.02.039-.042.058-.065s.02-.021.029-.033a1.388,1.388,0,0,0,.083-.116,1.133,1.133,0,0,0,.089-.173l.013-.03a1.185,1.185,0,0,0,.054-.182l0-.017A1.4,1.4,0,0,0,58.7,12.3h0c-.11-1.1-1.382-2.2-2.025-1.137a1.266,1.266,0,0,0-.125.273h0a1.518,1.518,0,0,0-.045.736v0c.006.037.014.073.023.11a15.337,15.337,0,0,1-2.692,1.834q-.249-.47-.534-.919c-.019-.029-.038-.058-.056-.087q-.136-.21-.28-.416l-.024-.034c-.107-.152-.218-.3-.331-.448l-.041-.052q-.154-.2-.317-.392l-.043-.051q-.363-.428-.76-.822l-.049-.049c-.253-.249-.514-.488-.786-.717a19.221,19.221,0,0,1,2.591-3.441l.02.009c.032.016.064.033.1.047l.039.016a2.069,2.069,0,0,0,.2.072l.035.011c.023.007.046.011.069.016l.075.017.064.009.077.009.062,0c.026,0,.051,0,.077,0l.06,0,.075-.007.058-.01.072-.016.056-.017.069-.025.053-.024.065-.035.049-.031c.021-.014.042-.03.062-.046s.03-.024.045-.038.038-.037.057-.056l.04-.045c.018-.022.035-.046.052-.069s.025-.034.036-.052a.962.962,0,0,0,.047-.084c.009-.018.02-.036.029-.055s.03-.07.044-.107c.006-.018.014-.034.02-.053a1.468,1.468,0,0,0,.051-.18A1.228,1.228,0,0,0,55.09,5.8c0-.019,0-.038,0-.056s.005-.065.005-.1,0-.048,0-.071,0-.052-.005-.077,0-.055-.008-.082-.005-.036-.008-.054c-.257-1.566-2.785-2.77-3.152-.991a1.692,1.692,0,0,0-.035.392h0a1.984,1.984,0,0,0,.268.929l0,0c.024.043.05.085.076.126a19.585,19.585,0,0,1-2.615,3.559A12.651,12.651,0,0,0,46.777,7.9a12.8,12.8,0,0,0-1.242-.38,19.973,19.973,0,0,1,.773-3.991h.017l.082,0,.031,0A1.506,1.506,0,0,0,46.6,3.51l.028,0,.051-.01.058-.013.047-.014c.019-.006.039-.011.057-.018s.029-.012.044-.018l.054-.023.04-.022c.017-.009.034-.018.051-.029l.036-.025.046-.034.033-.029c.014-.013.027-.026.04-.04l.029-.033c.012-.015.024-.03.035-.046l.024-.037c.01-.016.019-.033.028-.051s.014-.027.02-.04a.571.571,0,0,0,.021-.058l.015-.044c.005-.021.009-.043.014-.065s.006-.03.008-.046a.6.6,0,0,0,.006-.074c0-.016,0-.031,0-.048s0-.058,0-.088c0-.014,0-.028,0-.043-.005-.045-.012-.092-.022-.141a1.155,1.155,0,0,0-.056-.187L47.3,2.2a1.283,1.283,0,0,0-.087-.169l-.01-.014c-.659-1.022-2.82-1.063-2.513.3a1.337,1.337,0,0,0,.1.283h0a1.505,1.505,0,0,0,.478.56h0q.045.033.093.063a19.9,19.9,0,0,1-.8,4.084,14.06,14.06,0,0,0-5.136.056,13.441,13.441,0,0,1-1.689-3.942l.018-.012c.031-.02.061-.039.09-.06l.034-.026a1.951,1.951,0,0,0,.175-.148l.018-.016c.017-.017.032-.035.049-.052l.051-.055L38.21,3c.017-.021.033-.041.048-.062l.034-.053c.014-.021.028-.043.04-.065s.019-.036.027-.054.023-.045.033-.068.014-.037.02-.055.017-.048.024-.072.009-.037.013-.056.01-.048.014-.073a.551.551,0,0,0,.006-.057q0-.037,0-.075c0-.019,0-.039,0-.058a.653.653,0,0,0-.008-.076c0-.02-.005-.039-.009-.059s-.013-.052-.02-.077-.011-.039-.018-.059-.021-.053-.033-.08-.016-.038-.026-.057-.031-.055-.048-.082a.616.616,0,0,0-.033-.055c-.02-.03-.044-.06-.068-.091-.012-.015-.023-.03-.036-.045a1.607,1.607,0,0,0-.128-.136,1.492,1.492,0,0,0-.2-.158l-.035-.024a1.582,1.582,0,0,0-.22-.114l-.021-.009c-1.471-.6-3.821.984-2.476,2.213a1.7,1.7,0,0,0,.319.229h0a1.963,1.963,0,0,0,.932.241h0c.049,0,.1,0,.147,0A14.37,14.37,0,0,1,38.06,7.721a9.215,9.215,0,0,0-4.328,2.846,18.424,18.424,0,0,1-2.664-2.731l.009-.015c.015-.023.031-.045.044-.069l.017-.029a1.576,1.576,0,0,0,.073-.149l.011-.024c.007-.017.013-.034.019-.05s.013-.037.019-.056.009-.032.013-.048.01-.039.014-.058a.385.385,0,0,0,.008-.047c0-.019.007-.039.009-.058l0-.046c0-.02,0-.039,0-.058s0-.03,0-.045,0-.038-.005-.057,0-.029-.008-.043a.559.559,0,0,0-.012-.056c0-.014-.009-.028-.013-.042s-.013-.035-.021-.053l-.018-.04c-.009-.017-.019-.034-.029-.051L31.176,6.7c-.012-.017-.025-.033-.038-.048s-.019-.024-.03-.036-.031-.031-.047-.046l-.035-.032c-.019-.015-.039-.029-.059-.043l-.04-.028c-.023-.015-.049-.029-.076-.043s-.024-.014-.038-.021c-.041-.019-.084-.038-.131-.055a1.161,1.161,0,0,0-.188-.05l-.032,0a1.2,1.2,0,0,0-.188-.014h-.017a1.351,1.351,0,0,0-.4.073h0c-1.041.348-1.83,1.835-.662,2.234a1.267,1.267,0,0,0,.293.062h0a1.5,1.5,0,0,0,.726-.117h0c.034-.014.068-.03.1-.047a18.017,18.017,0,0,1,2.824,2.9,20.073,20.073,0,0,0-1.882,3.671,24.123,24.123,0,0,1-4.744-1.908l0-.023c.006-.035.011-.071.015-.106l0-.041a2.082,2.082,0,0,0,.007-.222c0-.011,0-.022,0-.033s0-.047-.006-.07,0-.052-.007-.077-.008-.042-.011-.063-.009-.053-.015-.078-.011-.04-.016-.06-.014-.05-.022-.074-.014-.037-.022-.056-.019-.047-.029-.07l-.027-.052c-.012-.022-.024-.044-.038-.065s-.021-.032-.032-.047-.03-.04-.046-.059-.025-.029-.038-.043-.035-.035-.053-.052-.029-.026-.045-.038a.761.761,0,0,0-.062-.045l-.049-.031a.685.685,0,0,0-.071-.037L25.9,11.68c-.026-.011-.054-.019-.082-.028a.58.58,0,0,0-.059-.019c-.03-.008-.062-.013-.094-.019A.617.617,0,0,0,25.6,11.6c-.036,0-.075-.007-.114-.009a.527.527,0,0,0-.057,0,1.7,1.7,0,0,0-.186.006,1.562,1.562,0,0,0-.155.021l-.055.013c-.032.007-.063.015-.094.024l-.066.022L24.8,11.7q-.037.015-.075.033c-.016.007-.032.016-.048.024a1.834,1.834,0,0,0-.414.3h0c-1.047.988-1.173,3.191.434,3.022a1.726,1.726,0,0,0,.382-.087h0a1.975,1.975,0,0,0,.8-.539l0,0c.033-.037.065-.074.095-.112a25.2,25.2,0,0,1,4.859,1.945,13.672,13.672,0,0,0-.513,5.854h0a16,16,0,0,1-2.921.318l0-.016c-.008-.026-.017-.052-.026-.078l-.012-.03a1.52,1.52,0,0,0-.07-.153l-.012-.023c-.009-.016-.018-.031-.028-.046l-.03-.05-.03-.04c-.011-.016-.023-.032-.035-.047s-.021-.024-.032-.036-.026-.029-.04-.043l-.034-.031c-.014-.013-.028-.026-.043-.038s-.024-.018-.037-.026l-.047-.032-.038-.021-.051-.025-.041-.016a.56.56,0,0,0-.054-.017l-.043-.011-.058-.01-.044,0a.414.414,0,0,0-.061,0h-.047l-.065.008c-.016,0-.031,0-.047.008s-.047.012-.071.019l-.045.013c-.027.009-.055.021-.082.033l-.04.016c-.041.02-.082.042-.125.068h0a1.071,1.071,0,0,0-.156.116l-.025.022a1.205,1.205,0,0,0-.128.139l-.01.014c-.737.967-.049,3.024,1.124,2.277a1.3,1.3,0,0,0,.232-.19h0a1.521,1.521,0,0,0,.365-.642v0c.011-.036.02-.072.028-.109A16.075,16.075,0,0,1,30.479,23a11.532,11.532,0,0,0,.8,2.38c.059.128.122.256.186.383.028.055.057.109.086.164q.075.141.153.282l.081.144c.081.139.163.277.251.415v0c.162.255.337.5.518.743l-.048.054A27.029,27.029,0,0,1,28.892,30.1l-.017-.015c-.026-.025-.052-.05-.078-.073l-.034-.027a1.88,1.88,0,0,0-.172-.129l-.031-.021c-.02-.013-.04-.024-.061-.035s-.044-.027-.067-.038l-.058-.028L28.3,29.7l-.059-.021c-.024-.008-.048-.017-.073-.024l-.058-.014-.074-.016-.058-.007-.074-.006a.561.561,0,0,0-.058,0,.612.612,0,0,0-.074,0,.554.554,0,0,0-.057.007.626.626,0,0,0-.073.014c-.019,0-.037.009-.056.015s-.048.016-.072.025l-.054.023a.694.694,0,0,0-.071.038c-.017.01-.035.019-.052.031a.83.83,0,0,0-.07.051c-.016.012-.033.024-.049.038s-.046.043-.069.066l-.045.045c-.024.027-.048.058-.072.089-.012.015-.024.028-.036.044a1.842,1.842,0,0,0-.1.157,1.431,1.431,0,0,0-.071.141c-.008.018-.014.035-.021.053s-.024.06-.033.091-.014.045-.021.067l-.018.076c-.006.026-.012.053-.016.08s0,.036-.008.054c-.212,1.572,1.852,3.469,2.724,1.876a1.714,1.714,0,0,0,.147-.364h0a1.987,1.987,0,0,0,.016-.966v0c-.01-.048-.023-.1-.036-.143a26.363,26.363,0,0,1,3.749-2.8A12.028,12.028,0,0,0,34.562,29.6q.21.172.428.334.436.325.9.613a13.364,13.364,0,0,0,1.6.846,16.777,16.777,0,0,1-1.623,2.276l-.016-.007-.075-.032-.032-.011a1.3,1.3,0,0,0-.158-.048l-.026-.007-.053-.01-.057-.01-.05,0-.058-.005h-.107l-.045,0a.558.558,0,0,0-.057.008l-.044.01-.055.014-.041.015-.052.022-.039.02c-.017.009-.033.019-.049.029l-.037.025-.045.037-.033.031a.592.592,0,0,0-.041.045l-.03.036c-.013.017-.025.036-.037.054l-.025.041a.659.659,0,0,0-.033.065l-.021.044c-.01.026-.02.054-.029.083s-.01.026-.014.041a1.348,1.348,0,0,0-.033.139,1.066,1.066,0,0,0-.016.194c0,.011,0,.022,0,.033a1.315,1.315,0,0,0,.019.189l0,.016a1.375,1.375,0,0,0,.138.385h0c.517.972,2.109,1.5,2.3.279a1.273,1.273,0,0,0,.013-.3,1.53,1.53,0,0,0-.237-.7h0q-.03-.048-.063-.093A16.192,16.192,0,0,1,38.3,31.726l.031.012q.511.188,1.037.335a13.273,13.273,0,0,0,3.37.49l.007.02a12.063,12.063,0,0,1,.276,3.678l-.021,0c-.036.008-.071.015-.1.024l-.039.012a2,2,0,0,0-.21.073l-.03.011-.064.031-.068.034c-.019.01-.037.022-.056.033l-.066.041c-.018.012-.034.024-.05.037s-.042.03-.062.047-.029.026-.044.04l-.055.052c-.013.015-.026.029-.038.044a.639.639,0,0,0-.047.059.5.5,0,0,0-.033.047c-.014.021-.027.042-.039.064s-.018.033-.026.051a.713.713,0,0,0-.029.069c-.007.018-.014.036-.02.054s-.014.049-.019.075a.578.578,0,0,0-.012.057.7.7,0,0,0-.009.08c0,.02,0,.04,0,.061s0,.057,0,.086,0,.042,0,.063.009.063.015.095.007.041.012.062c.008.036.02.073.032.11.006.018.01.036.017.055a1.847,1.847,0,0,0,.071.172,1.441,1.441,0,0,0,.131.219c.008.012.016.024.025.035a1.536,1.536,0,0,0,.164.186l.017.015a1.766,1.766,0,0,0,.441.3h0c1.292.632,3.387-.034,2.657-1.482a1.879,1.879,0,0,0-1-.888h0c-.046-.018-.092-.034-.138-.05a12.091,12.091,0,0,1-.243-3.828,11.63,11.63,0,0,0,3.288-.784,11.44,11.44,0,0,0,1.952-1.016,18.711,18.711,0,0,1,1,2.277L50.3,33c-.023.016-.046.033-.067.051l-.024.021a1.463,1.463,0,0,0-.128.12l-.016.017c-.013.014-.024.029-.036.043s-.026.03-.038.046l-.029.042c-.012.017-.024.033-.034.05s-.017.028-.025.042l-.028.053c-.007.015-.013.029-.019.044a.525.525,0,0,0-.022.055c-.005.014-.01.029-.014.044s-.011.037-.015.056-.006.03-.008.045a.554.554,0,0,0-.007.057l0,.045c0,.02,0,.039,0,.059s0,.03,0,.045a.558.558,0,0,0,.01.059c0,.016.006.031.01.046s.012.039.019.059.01.03.016.045.019.041.03.061.014.029.022.043.027.042.042.063.017.027.028.041.037.045.058.068l.029.034c.032.033.068.067.106.1a1.2,1.2,0,0,0,.164.114l.029.017a1.2,1.2,0,0,0,.176.079l.017.006a1.386,1.386,0,0,0,.411.072h0c1.123.035,2.405-1.115,1.422-1.914a1.313,1.313,0,0,0-.259-.164h0a1.539,1.539,0,0,0-.74-.146h0q-.057,0-.114.009A18.325,18.325,0,0,1,50,30.233c.059-.045.12-.087.178-.133q.428-.333.826-.7t.765-.774a13.285,13.285,0,0,0,.869-1.066c1.091.178,4.8,2.288,5.765,2.869l0,.017c-.007.027-.014.053-.019.079l-.006.032a1.462,1.462,0,0,0-.022.158l0,.035c0,.018,0,.035,0,.053s0,.04,0,.059,0,.033,0,.05,0,.04.005.059,0,.032.007.047.007.039.011.058.008.03.012.044a.518.518,0,0,0,.017.056c.005.014.01.028.016.042s.015.035.023.052l.021.039q.014.024.03.048l.025.036c.012.015.024.03.037.044a.3.3,0,0,0,.03.032c.014.014.028.026.043.039s.023.019.036.028.033.023.05.034.026.017.04.024.039.019.06.028l.043.019a.717.717,0,0,0,.07.023l.046.013a.752.752,0,0,0,.085.016l.043.008a1.278,1.278,0,0,0,.142.011,1.043,1.043,0,0,0,.194-.014l.032,0a1.227,1.227,0,0,0,.183-.047l.016-.006c1.139-.417,1.662-2.523.273-2.527a1.27,1.27,0,0,0-.3.034h0a1.514,1.514,0,0,0-.65.343l0,0-.081.077a36.909,36.909,0,0,1-5.616-2.978c.127-.208.25-.418.366-.632q.26-.48.481-.982a13.4,13.4,0,0,0,.716-2.061c.083-.318.151-.639.209-.961a10.512,10.512,0,0,1,3.593.136l0,.022q0,.054.012.108l.007.039a1.763,1.763,0,0,0,.049.223l.007.027c.007.024.015.046.023.068s.016.048.025.071.018.04.027.06.021.048.032.071.02.036.031.054a.716.716,0,0,0,.039.066c.011.018.023.034.035.05s.029.041.045.06.026.03.04.044.033.036.051.053.029.026.044.039l.058.046.048.032.064.037.052.026.071.028c.019.006.037.013.056.018s.052.013.078.019l.06.011a.769.769,0,0,0,.085.007c.021,0,.041,0,.063,0s.063,0,.095-.005.041,0,.063,0,.074-.012.112-.019c.019,0,.037-.006.057-.011a1.75,1.75,0,0,0,.179-.051,1.51,1.51,0,0,0,.231-.105l.038-.021a1.6,1.6,0,0,0,.2-.142L60.754,23a1.805,1.805,0,0,0,.348-.405h0C61.877,21.376,61.461,19.209,59.944,19.769ZM33.262,18.735c-.1.669-.262,1.089-1.14,1.149-.779.053-1.033-.591-1.139-1.149-.119-.623.49-1.1,1.139-1.149A1.094,1.094,0,0,1,33.262,18.735Zm2.793,7.483c-.669-.1-1.09-.262-1.149-1.14-.053-.779.591-1.034,1.149-1.14.623-.118,1.1.491,1.149,1.14A1.094,1.094,0,0,1,36.055,26.218Zm1.15-11.525c-.668-.1-1.089-.261-1.149-1.139-.052-.78.591-1.034,1.149-1.14.623-.119,1.1.491,1.149,1.14A1.094,1.094,0,0,1,37.205,14.693Zm3.444,4.475c-.1.668-.262,1.089-1.14,1.148-.779.053-1.034-.591-1.14-1.148-.118-.624.491-1.1,1.14-1.149A1.094,1.094,0,0,1,40.649,19.168ZM42.48,30.824a1.1,1.1,0,0,1-1.14-1.149c.1-.668.262-1.089,1.14-1.149.779-.053,1.034.591,1.14,1.149C43.738,30.3,43.129,30.778,42.48,30.824ZM44,10.816c-.779.053-1.034-.591-1.14-1.148-.119-.624.491-1.1,1.14-1.149a1.094,1.094,0,0,1,1.139,1.149C45.04,10.336,44.876,10.757,44,10.816Zm.11,4.562c.1-.669.262-1.09,1.14-1.149.779-.053,1.033.591,1.14,1.149.118.623-.491,1.1-1.14,1.149A1.094,1.094,0,0,1,44.108,15.378ZM46.4,24.444A1.094,1.094,0,0,1,45.26,23.3c.1-.669.261-1.09,1.139-1.149.779-.053,1.034.591,1.14,1.149C47.658,23.918,47.048,24.4,46.4,24.444Zm4.336,2.916c-.623.119-1.1-.491-1.149-1.14a1.1,1.1,0,0,1,1.149-1.14c.669.1,1.09.262,1.149,1.14C51.937,27,51.293,27.254,50.735,27.36Zm2.3-8.207c-.623.119-1.1-.491-1.149-1.14a1.094,1.094,0,0,1,1.149-1.139c.669.1,1.09.261,1.149,1.139C54.24,18.792,53.6,19.047,53.038,19.153Z" transform="translate(-1.539 -1)" fill="#f86168"/></svg>